<!DOCTYPE svg PUBLIC "-//W3C//DTD SVG 1.1//EN" "http://www.w3.org/Graphics/SVG/1.1/DTD/svg11.dtd">

<!-- Uploaded to: SVG Repo, www.svgrepo.com, Transformed by: SVG Repo Mixer Tools -->
<svg fill="#70e000" width="800px" height="800px" viewBox="0 0 32 32" version="1.1" xmlns="http://www.w3.org/2000/svg">

    <g id="SVGRepo_bgCarrier" stroke-width="0" />

    <g id="SVGRepo_tracerCarrier" stroke-linecap="round" stroke-linejoin="round" />

    <g id="SVGRepo_iconCarrier">
        <title>chart1</title>
        <path
            d="M16.998 14.942c0 0 0.096-11.986 0-11.986 6.896 0 11.986 5.090 11.986 11.986 0 0.038-11.986 0-11.986 0zM27.986 17.402c0 7.171-5.814 12.985-12.985 12.985-7.172 0-12.985-5.814-12.985-12.985 0-7.172 5.813-12.985 12.985-12.985 0.337 0 0.668 0.024 0.999 0.050v11.474h11.908c0.050 0.46 0.078 0.988 0.078 1.461zM26.925 17.002h-11.924v-11.586c-6.62 0-11.986 5.367-11.986 11.987s5.366 11.985 11.986 11.985 11.986-5.365 11.986-11.985c0-1.29-0.062-0.401-0.062-0.401z" />
    </g>

</svg>